<svg preserveAspectRatio="none" overflow="visible" style="display: block;" width="24" height="24.0004" viewBox="0 0 24 24.0004" fill="none" xmlns="http://www.w3.org/2000/svg">
<g id="24/Stroke/microphoneOn">
<path id="Union" d="M20 11.0004C20.5523 11.0004 21 11.4481 21 12.0004V13.0004C20.9998 17.6328 17.4998 21.4473 13 21.9447V23.0004C12.9998 23.5525 12.5522 24.0004 12 24.0004C11.4478 24.0004 11.0002 23.5525 11 23.0004V21.9447C6.50018 21.4473 3.00018 17.6328 3 13.0004V12.0004C3 11.4481 3.44772 11.0004 4 11.0004C4.55229 11.0004 5 11.4481 5 12.0004V13.0004C5.00019 16.8662 8.13412 20.0004 12 20.0004C15.8659 20.0004 18.9998 16.8662 19 13.0004V12.0004C19 11.4481 19.4477 11.0004 20 11.0004ZM9.43652 1.66349C11.0502 0.856671 12.9498 0.856671 14.5635 1.66349C16.6709 2.71719 17.9185 4.95338 17.709 7.3002L17.1689 13.3471C17.0328 14.872 16.2307 16.2591 14.9766 17.1371C13.1895 18.388 10.8105 18.388 9.02344 17.1371C7.76926 16.2591 6.96722 14.872 6.83106 13.3471L6.29102 7.3002C6.08153 4.95338 7.32911 2.71719 9.43652 1.66349ZM13.6689 3.45255C12.6183 2.92726 11.3817 2.92726 10.3311 3.45255C8.95893 4.13861 8.14678 5.59447 8.2832 7.12247L8.82227 13.1693C8.90598 14.1067 9.39996 14.9588 10.1709 15.4984C11.2693 16.2673 12.7307 16.2673 13.8291 15.4984C14.6 14.9588 15.094 14.1067 15.1777 13.1693L15.7168 7.12247C15.8532 5.59446 15.0411 4.13861 13.6689 3.45255Z" fill="#242429"/>
</g>
</svg>
