<svg xmlns="http://www.w3.org/2000/svg" width="28.8132" height="28.8132" viewBox="339.054 406.224 28.8132 28.8132" fill="none"><g clip-path="url(#clip10_939_22654)">
<path d="M363.065 423.332C364.557 423.332 365.766 422.122 365.766 420.631C365.766 419.139 364.557 417.929 363.065 417.929L363.053 417.929C361.561 417.929 360.352 419.139 360.352 420.631C360.352 422.122 361.561 423.332 363.053 423.332L363.065 423.332Z" fill="white" />
<path d="M356.162 420.631C356.162 422.122 354.952 423.332 353.461 423.332L353.449 423.332C351.957 423.332 350.747 422.122 350.747 420.631C350.747 419.139 351.957 417.929 353.449 417.929L353.461 417.929C354.952 417.929 356.162 419.139 356.162 420.631Z" fill="white" />
<path d="M346.557 420.631C346.557 422.122 345.348 423.332 343.856 423.332L343.844 423.332C342.352 423.332 341.143 422.122 341.143 420.631C341.143 419.139 342.352 417.929 343.844 417.929L343.856 417.929C345.348 417.929 346.557 419.139 346.557 420.631Z" fill="white" />
</g>
<defs><clipPath id="clip10_939_22654">
<rect width="28.8132" height="28.8132" fill="white" transform="translate(339.054 406.224)" />
</clipPath>
</defs></svg>