<svg width="24" height="24" viewBox="0 0 24 24" fill="none" xmlns="http://www.w3.org/2000/svg">
<path fill-rule="evenodd" clip-rule="evenodd" d="M15.2425 4C14.7121 4 14.2034 4.21071 13.8283 4.58579L5.70696 12.7071C5.31644 13.0976 4.68327 13.0976 4.29275 12.7071C3.90222 12.3166 3.90222 11.6834 4.29275 11.2929L12.4141 3.17157C13.1642 2.42143 14.1816 2 15.2425 2H18.9999C20.6567 2 21.9999 3.34315 21.9999 5V8.75736C21.9999 9.81822 21.5784 10.8356 20.8283 11.5858L10.457 21.9571C8.8238 23.5903 6.17591 23.5903 4.54274 21.9571C2.90958 20.3239 2.90958 17.6761 4.54275 16.0429L12.2927 8.29289C12.6833 7.90237 13.3164 7.90237 13.707 8.29289C14.0975 8.68342 14.0975 9.31658 13.707 9.70711L5.95696 17.4571C5.10484 18.3092 5.10484 19.6908 5.95696 20.5429C6.80907 21.395 8.19063 21.395 9.04275 20.5429L19.4141 10.1716C19.7891 9.7965 19.9999 9.28779 19.9999 8.75736V5C19.9999 4.44772 19.5521 4 18.9999 4H15.2425Z" fill="black"/>
</svg>
