<svg width="24" height="24" viewBox="0 0 24 24" fill="none" xmlns="http://www.w3.org/2000/svg">
<path d="M10 10C10 8.89543 10.8954 8 12 8H12.01C13.1146 8 14.01 8.89543 14.01 10C14.01 11.1046 13.1146 12 12.01 12H12C10.8954 12 10 11.1046 10 10Z" fill="#242429"/>
<path fill-rule="evenodd" clip-rule="evenodd" d="M1 12C1 5.92487 5.92487 1 12 1C18.0751 1 23 5.92487 23 12C23 18.0751 18.0751 23 12 23C5.92487 23 1 18.0751 1 12ZM12 3C7.02944 3 3 7.02944 3 12C3 13.9175 3.59964 15.6949 4.62163 17.155C6.44997 15.1575 9.07872 13.9048 12.0001 13.9048C14.9214 13.9048 17.5501 15.1574 19.3784 17.1549C20.4004 15.6948 21 13.9174 21 12C21 7.02944 16.9706 3 12 3Z" fill="#242429"/>
</svg>
